<svg width="5000" height="5000" viewBox="0 0 5000 5000" fill="none" xmlns="http://www.w3.org/2000/svg">
<rect width="5000" height="5000" fill="#2B2B2B"/>
<path d="M3221.74 3825H2489.54L3415.55 1175H4147.8L3221.79 3825H3221.74Z" fill="white"/>
<path d="M4270.51 1706.53L3507.69 3825H3536.84C3948.25 3825 4270.46 3490.05 4270.46 3076.89V1706.53H4270.51Z" fill="white"/>
<path d="M2207.71 1175C1854.66 1175 1540.03 1397.31 1422.72 1729.69L730 3825H2191.71L3119.7 1175H2207.71ZM1812.85 3306.54C1654.38 3350.1 1530.55 3473.93 1486.99 3632.4L1483.9 3643.68L1480.82 3632.4C1437.25 3473.93 1313.42 3350.1 1154.91 3306.54L1143.63 3303.46L1154.91 3300.37C1313.42 3256.81 1437.25 3132.98 1480.82 2974.47L1483.9 2963.19L1486.99 2974.47C1530.55 3132.98 1654.38 3256.81 1812.85 3300.37L1824.13 3303.46L1812.85 3306.54Z" fill="white"/>
</svg>
