<svg width="147" height="73" viewBox="0 0 147 73" fill="none" xmlns="http://www.w3.org/2000/svg">
<g id="Frame 427319126">
<g id="Ellipse 1520">
<mask id="path-1-inside-1_706_5515" fill="white">
<path d="M0.666504 73C0.666506 53.6392 8.35754 35.0714 22.0477 21.3813C35.7378 7.6911 54.3056 3.9005e-05 73.6664 1.48141e-10C93.0271 -3.90047e-05 111.595 7.69095 125.285 21.381C138.975 35.0711 146.666 53.6389 146.667 72.9997L85.3374 73C85.3374 69.9046 84.1078 66.9361 81.9191 64.7474C79.7303 62.5587 76.7618 61.3291 73.6665 61.3291C70.5712 61.3291 67.6026 62.5587 65.4139 64.7474C63.2252 66.9361 61.9956 69.9047 61.9956 73L0.666504 73Z"/>
</mask>
<path d="M0.666504 73C0.666506 53.6392 8.35754 35.0714 22.0477 21.3813C35.7378 7.6911 54.3056 3.9005e-05 73.6664 1.48141e-10C93.0271 -3.90047e-05 111.595 7.69095 125.285 21.381C138.975 35.0711 146.666 53.6389 146.667 72.9997L85.3374 73C85.3374 69.9046 84.1078 66.9361 81.9191 64.7474C79.7303 62.5587 76.7618 61.3291 73.6665 61.3291C70.5712 61.3291 67.6026 62.5587 65.4139 64.7474C63.2252 66.9361 61.9956 69.9047 61.9956 73L0.666504 73Z" stroke="#3778A6" stroke-width="2" mask="url(#path-1-inside-1_706_5515)"/>
</g>
<path id="Ellipse 1521" d="M0.666504 73C0.666505 58.562 4.94788 44.4482 12.9692 32.4434C20.9906 20.4386 32.3916 11.082 45.7306 5.55679C59.0696 0.0315933 73.7475 -1.41405 87.9081 1.40268C102.069 4.2194 115.076 11.172 125.285 21.3812L81.9191 64.7474C80.2869 63.1152 78.2073 62.0037 75.9434 61.5533C73.6795 61.103 71.3328 61.3341 69.2002 62.2175C67.0677 63.1008 65.2449 64.5967 63.9625 66.516C62.6801 68.4353 61.9956 70.6917 61.9956 73L0.666504 73Z" fill="#3778A6"/>
</g>
</svg>
