<svg width="32" height="24" viewBox="0 0 32 24" fill="none" xmlns="http://www.w3.org/2000/svg">
<g id="Group 76">
<path id="Vector" d="M22.521 23.9514H15.9031L24.2726 0H30.8909L22.5214 23.9514H22.521Z" fill="#2B2B2B"/>
<path id="Vector_2" d="M32 4.80371L25.1054 23.9509H25.369C29.0873 23.9509 31.9996 20.9236 31.9996 17.1894V4.80371H32Z" fill="#2B2B2B"/>
<path id="Vector_3" d="M13.3559 0C10.1649 0 7.32124 2.00932 6.26095 5.01341L0 23.9514H13.2113L21.5987 0H13.3559ZM9.7871 19.2654C8.35478 19.6591 7.23559 20.7783 6.84186 22.2106L6.81396 22.3125L6.78606 22.2106C6.39233 20.7783 5.27314 19.6591 3.84043 19.2654L3.73851 19.2375L3.84043 19.2096C5.27314 18.8159 6.39233 17.6967 6.78606 16.264L6.81396 16.1621L6.84186 16.264C7.23559 17.6967 8.35478 18.8159 9.7871 19.2096L9.88902 19.2375L9.7871 19.2654Z" fill="#2B2B2B"/>
</g>
</svg>
