<svg width="146" height="73" viewBox="0 0 146 73" fill="none" xmlns="http://www.w3.org/2000/svg">
<path d="M0 73C1.69257e-06 53.6392 7.69103 35.0714 21.3812 21.3813C35.0713 7.6911 53.6391 3.9005e-05 72.9999 1.48141e-10C92.3606 -3.90047e-05 110.928 7.69095 124.619 21.381C138.309 35.0711 146 53.6389 146 72.9997L84.6709 73C84.6709 69.9046 83.4413 66.9361 81.2526 64.7474C79.0638 62.5587 76.0953 61.3291 73 61.3291C69.9047 61.3291 66.9361 62.5587 64.7474 64.7474C62.5587 66.9361 61.3291 69.9047 61.3291 73L0 73Z" fill="#667FBF"/>
</svg>
