<svg width="18" height="18" viewBox="0 0 18 18" fill="none" xmlns="http://www.w3.org/2000/svg">
<path fill-rule="evenodd" clip-rule="evenodd" d="M12.3569 11.6077H13.1905L17.6645 16.1028C18.0971 16.5354 18.0971 17.2424 17.6645 17.675C17.2319 18.1077 16.5249 18.1077 16.0923 17.675L11.6077 13.1905V12.3569L11.3228 12.0614C9.84555 13.3277 7.83014 13.9819 5.68812 13.6231C2.7547 13.1272 0.412183 10.6791 0.0534194 7.72463C-0.495278 3.26119 3.26119 -0.495278 7.72463 0.0534194C10.6791 0.412183 13.1272 2.7547 13.6231 5.68812C13.9819 7.83014 13.3277 9.84555 12.0614 11.3228L12.3569 11.6077ZM2.11103 6.85937C2.11103 9.48679 4.23196 11.6077 6.85937 11.6077C9.48679 11.6077 11.6077 9.48679 11.6077 6.85937C11.6077 4.23196 9.48679 2.11103 6.85937 2.11103C4.23196 2.11103 2.11103 4.23196 2.11103 6.85937Z" fill="#626262"/>
</svg>
